<svg width="45" height="45" viewBox="0 0 36 36" fill="none" xmlns="http://www.w3.org/2000/svg">
<path d="M36 18C36 19.5992 34.7049 20.8942 33.1058 20.8942C31.5076 20.8942 30.2135 19.5992 30.2135 18C30.2135 16.4018 31.5076 15.1067 33.1058 15.1067C34.7049 15.1067 36 16.4018 36 18ZM5.78558 18C5.78558 16.4018 4.49053 15.1067 2.89326 15.1067C1.29505 15.1067 0 16.4018 0 18C0 19.5992 1.29505 20.8942 2.89326 20.8942C4.49053 20.8942 5.78558 19.5992 5.78558 18ZM18 30.2144C16.4027 30.2144 15.1067 31.5095 15.1067 33.1067C15.1067 34.7049 16.4027 36 18 36C19.5992 36 20.8942 34.7049 20.8942 33.1058C20.8942 31.5095 19.5992 30.2144 18 30.2144ZM18 5.78558C19.5992 5.78558 20.8942 4.49053 20.8942 2.89326C20.8942 1.29505 19.5992 0 18 0C16.4027 0 15.1067 1.29505 15.1067 2.89326C15.1067 4.49053 16.4027 5.78558 18 5.78558ZM26.6372 26.6372C25.5079 27.7655 25.5079 29.5986 26.6372 30.7279C27.7655 31.8553 29.5986 31.8553 30.7279 30.7279C31.8553 29.5986 31.8553 27.7655 30.7279 26.6372C29.5986 25.5079 27.7664 25.5069 26.6372 26.6372ZM9.36284 9.36284C10.4921 8.23358 10.4921 6.40137 9.36284 5.27211C8.23358 4.14284 6.40137 4.14284 5.27211 5.27211C4.14284 6.40137 4.14284 8.23358 5.27211 9.36284C6.40137 10.4921 8.23358 10.4931 9.36284 9.36284ZM5.27211 26.6372C4.14284 27.7655 4.14284 29.5986 5.27211 30.7279C6.40137 31.8553 8.23358 31.8553 9.36284 30.7279C10.4921 29.5986 10.4921 27.7655 9.36284 26.6372C8.23358 25.5079 6.40137 25.5069 5.27211 26.6372ZM30.7288 9.36284C31.8572 8.23358 31.8572 6.40137 30.7288 5.27211C29.6005 4.14284 27.7664 4.14284 26.6391 5.27211C25.5098 6.40137 25.5098 8.23358 26.6391 9.36284C27.7664 10.4921 29.5986 10.4931 30.7288 9.36284ZM25.704 23.8907L23.1632 21.3499C23.7098 20.5105 24.0537 19.53 24.1333 18.4737H27.9474C28.4703 18.4737 28.8947 18.0493 28.8947 17.5263C28.8947 17.0034 28.4703 16.5789 27.9474 16.5789H23.9855C23.7676 15.6553 23.3469 14.8112 22.7643 14.1006L25.7031 11.1619C26.0735 10.7915 26.0735 10.1927 25.7031 9.82232C25.3326 9.45189 24.7339 9.45189 24.3635 9.82232L21.3489 12.8368C20.6365 12.3736 19.8218 12.0581 18.9464 11.9226V7.57895C18.9464 7.056 18.522 6.63158 17.9991 6.63158C17.4761 6.63158 17.0517 7.056 17.0517 7.57895V11.9226C16.1763 12.0581 15.3616 12.3736 14.6492 12.8368L11.6346 9.82232C11.2642 9.45189 10.6655 9.45189 10.2951 9.82232C9.92463 10.1927 9.92463 10.7915 10.2951 11.1619L13.2338 14.1006C12.6521 14.8112 12.2305 15.6553 12.0117 16.5789H8.05263C7.52968 16.5789 7.10526 17.0034 7.10526 17.5263C7.10526 18.0493 7.52968 18.4737 8.05263 18.4737H11.8658C11.9463 19.5291 12.2902 20.5086 12.8368 21.3499L10.296 23.8907C9.92558 24.2621 9.92558 24.8599 10.296 25.2303C10.4807 25.4151 10.7233 25.5079 10.9658 25.5079C11.2083 25.5079 11.4508 25.4151 11.6356 25.2303L14.1006 22.7643C14.9305 23.4455 15.9433 23.9059 17.0526 24.0774V27.4737C17.0526 27.9966 17.4771 28.4211 18 28.4211C18.5229 28.4211 18.9474 27.9966 18.9474 27.4737V24.0774C20.0558 23.9059 21.0676 23.4455 21.8994 22.7653L24.3644 25.2303C24.5492 25.4151 24.7917 25.5079 25.0342 25.5079C25.2777 25.5079 25.5202 25.4151 25.704 25.2303C26.0725 24.8599 26.0725 24.2593 25.704 23.8907Z" fill="#F0F0F0"/>
</svg>
