<svg width="45" height="44" viewBox="0 0 40 39" fill="none" xmlns="http://www.w3.org/2000/svg">
<path d="M37.8667 2.85999H2.13333C0.954667 2.85999 0 3.79183 0 4.93999V34.06C0 35.2092 0.954667 36.14 2.13333 36.14H37.8667C39.0443 36.14 40 35.2092 40 34.06V4.93999C40 3.79183 39.0443 2.85999 37.8667 2.85999ZM33.1563 5.46415C34.0853 5.46415 34.8395 6.19943 34.8395 7.10735C34.8395 8.01319 34.0853 8.74847 33.1563 8.74847C32.2251 8.74847 31.4709 8.01319 31.4709 7.10735C31.4709 6.19943 32.2251 5.46415 33.1563 5.46415ZM28.4 5.46415C29.3312 5.46415 30.0853 6.19943 30.0853 7.10735C30.0853 8.01319 29.3312 8.74847 28.4 8.74847C27.4709 8.74847 26.7168 8.01319 26.7168 7.10735C26.7168 6.19943 27.4709 5.46415 28.4 5.46415ZM23.6437 5.46415C24.5749 5.46415 25.3291 6.19943 25.3291 7.10735C25.3291 8.01319 24.5749 8.74847 23.6437 8.74847C22.7147 8.74847 21.9605 8.01319 21.9605 7.10735C21.9605 6.19943 22.7147 5.46415 23.6437 5.46415ZM35.7333 31.98H4.26667V10.8326H35.7333V31.98ZM12.5344 28.8621C12.1248 28.8621 11.7141 28.7102 11.4016 28.4055C10.7765 27.7961 10.7765 26.8091 11.4016 26.1997L16.512 21.216L11.4016 16.2333C10.7765 15.6239 10.7765 14.638 11.4016 14.0285C12.0267 13.4181 13.0389 13.4181 13.664 14.0285L19.9072 20.1146C20.5323 20.7261 20.5323 21.711 19.9072 22.3205L13.664 28.4086C13.3547 28.7092 12.944 28.8621 12.5344 28.8621ZM29.2459 28.8621H21.0677C20.1845 28.8621 19.4677 28.1632 19.4677 27.3021C19.4677 26.4409 20.1845 25.7421 21.0677 25.7421H29.2459C30.1291 25.7421 30.8459 26.4409 30.8459 27.3021C30.8459 28.1632 30.1291 28.8621 29.2459 28.8621Z" fill="#F0F0F0"/>
</svg>
