<svg width="55" height="55" viewBox="0 0 49 49" fill="none" xmlns="http://www.w3.org/2000/svg">
<path d="M44.9534 12.441H44.005C43.622 12.441 43.2517 12.4956 42.9004 12.5955C42.5423 10.7279 40.8973 9.31207 38.9269 9.31207H37.9785C35.7472 9.31207 33.9318 11.1275 33.9318 13.3587V19.8902H15.0681V12.5587C15.0681 10.3274 13.2527 8.51208 11.0215 8.51208H10.0731C8.1027 8.51208 6.45766 9.92792 6.09973 11.7956C5.74831 11.6956 5.37804 11.641 4.99503 11.641H4.04671C1.81539 11.641 0 13.4562 0 15.6876V32.5122C0 34.7435 1.81539 36.5588 4.04662 36.5588H4.99494C5.37794 36.5588 5.74822 36.5042 6.09964 36.4043C6.45766 38.2719 8.1027 39.6878 10.073 39.6878H11.0214C13.2527 39.6878 15.068 37.8724 15.068 35.6411V29.7648H33.9317V36.4412C33.9317 38.6725 35.7471 40.4878 37.9784 40.4878H38.9268C40.8972 40.4878 42.5423 39.0719 42.9003 37.2044C43.2516 37.3043 43.622 37.3589 44.0049 37.3589H44.9533C47.1845 37.3589 48.9999 35.5435 48.9999 33.3123V16.4876C49 14.2563 47.1846 12.441 44.9534 12.441ZM6.02652 32.5122C6.02652 33.0811 5.5638 33.5439 4.99494 33.5439H4.04662C3.47776 33.5439 3.01503 33.0811 3.01503 32.5122V15.6876C3.01503 15.1188 3.47776 14.656 4.04662 14.656H4.99494C5.5638 14.656 6.02652 15.1188 6.02652 15.6876V32.5122V32.5122ZM12.053 35.6412C12.053 36.2101 11.5903 36.6728 11.0215 36.6728H10.0731C9.50428 36.6728 9.04155 36.2101 9.04155 35.6412V12.5585C9.04155 11.9896 9.50437 11.5269 10.0731 11.5269H11.0215C11.5903 11.5269 12.053 11.9896 12.053 12.5585V35.6412ZM33.9319 26.7498H15.0681V22.9052H33.9318V26.7498H33.9319ZM39.9584 36.4413C39.9584 37.0102 39.4957 37.4729 38.9268 37.4729H37.9784C37.4096 37.4729 36.9468 37.0102 36.9468 36.4413V13.3586C36.9468 12.7897 37.4095 12.327 37.9784 12.327H38.9268C39.4956 12.327 39.9584 12.7897 39.9584 13.3586V36.4413ZM45.985 33.3122C45.985 33.8811 45.5222 34.3438 44.9534 34.3438H44.005C43.4362 34.3438 42.9734 33.8811 42.9734 33.3122V16.4876C42.9734 15.9187 43.4361 15.456 44.005 15.456H44.9534C45.5221 15.456 45.985 15.9187 45.985 16.4876V33.3122Z" fill="#F0F0F0"/>
</svg>
