<svg width="45" height="44" viewBox="0 0 40 39" fill="none" xmlns="http://www.w3.org/2000/svg">
<path d="M34.4553 36.2782C34.4553 37.3548 33.5815 38.2286 32.5049 38.2286H1.95037C0.873767 38.2286 0 37.3548 0 36.2782V5.72174C0 4.64513 0.873767 3.77136 1.95037 3.77136C3.02698 3.77136 3.90075 4.64513 3.90075 5.72174V34.3279H32.5049C33.5815 34.3279 34.4553 35.2007 34.4553 36.2782ZM36 16.4488C36 17.4815 35.1643 18.3182 34.1306 18.3182C33.5152 18.3182 32.973 18.0169 32.6346 17.5586L29.0996 17.4864L27.0049 21.8611C27.039 22.0035 27.0644 22.1488 27.0644 22.3009C27.0644 23.3346 26.2286 24.1703 25.194 24.1703C24.5181 24.1703 23.9282 23.8056 23.6005 23.2644L20.8173 22.6237L19.7027 25.6194C19.7807 25.8272 19.8285 26.0476 19.8285 26.2836C19.8285 27.3172 18.9927 28.153 17.96 28.153C17.0784 28.153 16.3451 27.5415 16.1471 26.7214L14.1071 25.4517L11.2751 30.0419C11.2849 30.116 11.2966 30.1882 11.2966 30.2652C11.2966 31.2989 10.4599 32.1347 9.42713 32.1347C8.39441 32.1347 7.55672 31.2999 7.55672 30.2662C7.55672 29.2325 8.39343 28.3968 9.42616 28.3968C9.60949 28.3968 9.78015 28.4309 9.94593 28.4787L12.4502 24.4209L7.71373 21.473C7.53429 21.5305 7.34803 21.5695 7.15007 21.5695C6.11735 21.5695 5.28161 20.7328 5.28161 19.7001C5.28161 18.6673 6.11735 17.8306 7.15007 17.8306C8.18279 17.8306 9.02048 18.6673 9.02048 19.7001C9.02048 19.7927 9.00488 19.8824 8.99415 19.9712L13.4771 22.7612L14.4571 21.1726C14.3577 20.9464 14.304 20.6967 14.304 20.4324C14.304 19.3997 15.1388 18.563 16.1725 18.563C17.0443 18.563 17.7699 19.1608 17.9776 19.9653L19.5876 20.3369L20.6203 17.5693C20.3843 17.2562 20.2361 16.871 20.2361 16.4488C20.2361 15.4161 21.0728 14.5794 22.1055 14.5794C22.7599 14.5794 23.3343 14.9158 23.6678 15.4229L27.8884 15.5087L29.5014 12.1365C29.2956 11.8362 29.1756 11.4744 29.1756 11.0833C29.1756 10.0506 30.0114 9.21388 31.0441 9.21388C32.0788 9.21388 32.9145 10.0506 32.9145 11.0833C32.9145 12.0331 32.2036 12.8094 31.284 12.9284L30.027 15.5516L32.4767 15.6014C32.7829 14.9958 33.407 14.5774 34.1325 14.5774C35.1623 14.5803 36 15.417 36 16.4488ZM18.9001 22.18L17.3954 21.8338C17.0667 22.1215 16.6435 22.3009 16.1705 22.3009C16.1325 22.3009 16.0964 22.2921 16.0584 22.2872L15.131 23.79L16.7976 24.8276C17.1175 24.5711 17.5173 24.4122 17.959 24.4122C17.9951 24.4122 18.0293 24.4219 18.0653 24.4239L18.9001 22.18ZM26.959 17.4415L23.7195 17.3752C23.4493 17.8453 22.9842 18.1866 22.4332 18.2851L21.5068 20.7806L23.6366 21.2721C23.972 20.765 24.5445 20.4324 25.1959 20.4324C25.3051 20.4324 25.4124 20.448 25.5148 20.4646L26.959 17.4415Z" fill="#F0F0F0"/>
</svg>
