<svg width="60" height="60" viewBox="0 0 76 76" fill="none" xmlns="http://www.w3.org/2000/svg">
<circle cx="38" cy="38" r="38" fill="#CFCFCF"/>
<circle cx="38" cy="38" r="38" stroke="black"/>
<path d="M60.8998 12.2608C67.8589 18.2016 72.173 26.6635 72.893 35.7851C73.613 44.9067 70.6801 53.9407 64.7393 60.8998C58.7985 67.8589 50.3366 72.173 41.215 72.893C32.0934 73.6131 23.0594 70.6801 16.1003 64.7393L38.5 38.5L60.8998 12.2608Z" fill="#EDEDED"/>
<path d="M31.296 42.768V23.904H35.376V43.008C35.376 46.976 34.512 49.872 32.784 51.696C31.056 53.488 28.256 54.384 24.384 54.384C23.296 54.384 22.288 54.336 21.36 54.24C20.432 54.144 19.584 53.984 18.816 53.76V50.016C19.712 50.208 20.544 50.352 21.312 50.448C22.112 50.512 22.96 50.544 23.856 50.544C26.64 50.544 28.576 49.968 29.664 48.816C30.752 47.664 31.296 45.648 31.296 42.768Z" fill="black"/>
<path d="M42.976 38.592L55.744 54H50.464L39.472 40.512H35.536L35 40.5L31.5 51L31.456 23.904H35.536V36.912H39.472L50.272 23.904H55.264L42.976 38.592Z" fill="black"/>
</svg>
