<svg id="Layer_1" fill='tomato' enable-background="new 0 0 511.449 511.449" height="512" viewBox="0 0 511.449 511.449" width="512" xmlns="http://www.w3.org/2000/svg"><path d="m436.508 74.941c-99.912-99.914-261.639-99.93-361.566 0-99.914 99.912-99.93 261.639 0 361.566 99.912 99.914 261.639 99.93 361.566 0 99.913-99.911 99.929-261.638 0-361.566zm-180.784 394.45c-117.816 0-213.667-95.851-213.667-213.667s95.851-213.667 213.667-213.667 213.667 95.851 213.667 213.667-95.85 213.667-213.667 213.667z"/><path d="m308.428 248.731c28.476-41.939-1.616-99.339-52.706-99.339-51.102 0-81.181 57.409-52.705 99.342-32.011 18.347-53.625 52.858-53.625 92.324 0 11.598 9.402 21 21 21s21-9.402 21-21c0-35.474 28.859-64.333 64.333-64.333s64.333 28.859 64.333 64.333c0 11.598 9.402 21 21 21s21-9.402 21-21c-.001-39.468-21.617-73.981-53.63-92.327zm-52.706-57.34c11.946 0 21.666 9.72 21.666 21.666 0 11.947-9.72 21.667-21.666 21.667-11.947 0-21.667-9.72-21.667-21.667 0-11.946 9.719-21.666 21.667-21.666z"/></svg>